<?xml version="1.0" encoding="UTF-8" standalone="no"?>
<svg
   xmlns:dc="http://purl.org/dc/elements/1.1/"
   xmlns:cc="http://creativecommons.org/ns#"
   xmlns:rdf="http://www.w3.org/1999/02/22-rdf-syntax-ns#"
   xmlns:svg="http://www.w3.org/2000/svg"
   xmlns="http://www.w3.org/2000/svg"
   id="svg8"
   version="1.1"
   viewBox="0 0 6.3499999 6.3499997"
   height="24"
   width="24">
  <defs
     id="defs2" />
  <metadata
     id="metadata5">
    <rdf:RDF>
      <cc:Work
         rdf:about="">
        <dc:format>image/svg+xml</dc:format>
        <dc:type
           rdf:resource="http://purl.org/dc/dcmitype/StillImage" />
        <dc:title></dc:title>
      </cc:Work>
    </rdf:RDF>
  </metadata>
  <g
     transform="translate(98.606346,-264.40273)"
     id="layer1">
    <path
       id="path867"
       d="m -95.571237,270.47607 -0.401789,-3.3e-4 c -0.132648,-8e-5 -0.189277,-0.0894 -0.188331,-0.19143 l 0.0071,-0.7723 c -0.698542,0.13216 -1.130091,0.0129 -1.349128,-0.57086 -0.06808,-0.18152 -0.254005,-0.34964 -0.383425,-0.43638 -0.192151,-0.12878 -0.124399,-0.23658 0.196845,-0.1505 0.376476,0.10027 0.436067,0.47471 0.694183,0.66924 0.214714,0.16181 0.502599,0.13738 0.849297,0.007 0.01821,-0.21482 0.06322,-0.41626 0.283951,-0.52982 -0.45436,-0.0246 -0.696827,-0.12527 -0.969169,-0.24729 -0.462432,-0.20721 -0.729655,-0.77084 -0.775613,-1.3262 -0.04005,-0.48413 0.04076,-0.87364 0.391533,-1.25777 -0.05393,-0.1687 -0.16979,-0.44538 0.02785,-0.97565 0.425793,-0.004 0.794409,0.24914 0.9948,0.40414 0.737108,-0.23551 1.630656,-0.11394 1.873034,0 0.515985,-0.33616 0.800175,-0.41845 1.010344,-0.41968 0.217843,0.60182 0.0832,0.79596 0.0389,1.01035 0.260317,0.26619 0.397457,0.62587 0.401754,1.02148 0.0044,0.44232 -0.152311,0.92269 -0.405803,1.22895 -0.27175,0.32832 -0.750415,0.5101 -1.351489,0.54652 0.23127,0.13352 0.303426,0.28378 0.302314,0.54654 l -0.0053,1.2527 c 0,0.10542 -0.04845,0.19249 -0.190002,0.19249 l -0.158137,-2.5e-4"
       style="fill:none;stroke:#000000;stroke-width:0.26458332;stroke-linecap:round;stroke-linejoin:round;stroke-miterlimit:4;stroke-dasharray:none;stroke-opacity:1" />
  </g>
</svg>
