<?xml version="1.0" encoding="UTF-8" standalone="no"?>
<svg
   xmlns:dc="http://purl.org/dc/elements/1.1/"
   xmlns:cc="http://creativecommons.org/ns#"
   xmlns:rdf="http://www.w3.org/1999/02/22-rdf-syntax-ns#"
   xmlns:svg="http://www.w3.org/2000/svg"
   xmlns="http://www.w3.org/2000/svg"
   id="svg8"
   version="1.1"
   viewBox="0 0 6.3499999 6.3499997"
   height="24"
   width="24">
  <defs
     id="defs2" />
  <metadata
     id="metadata5">
    <rdf:RDF>
      <cc:Work
         rdf:about="">
        <dc:format>image/svg+xml</dc:format>
        <dc:type
           rdf:resource="http://purl.org/dc/dcmitype/StillImage" />
        <dc:title></dc:title>
      </cc:Work>
    </rdf:RDF>
  </metadata>
  <g
     transform="translate(98.606346,-264.40273)"
     id="layer1">
    <path
       id="path826"
       d="m -95.865808,269.84333 c -0.830204,0.1393 -1.728126,-0.0129 -2.416611,-0.46557 0.831744,0.0778 1.299756,-0.1855 1.72593,-0.48797 v 3e-5 c -0.394802,-0.0554 -0.789902,-0.10851 -1.096815,-0.81676 0.20092,0.0512 0.365813,0.0183 0.528884,-0.0188 -0.501794,-0.14409 -0.882956,-0.44329 -0.936635,-1.16354 0.154946,0.0857 0.322766,0.14887 0.528883,0.14502 -0.689247,-0.50341 -0.549583,-1.28469 -0.361688,-1.56618 0.904569,1.06512 1.914754,1.20191 2.417936,1.22603 -0.255023,-1.18085 1.158422,-1.9152 1.996904,-1.07087 0.387862,-0.0704 0.571588,-0.18769 0.744335,-0.28107 -0.166803,0.44338 -0.370489,0.54163 -0.514384,0.64541 0.332618,-0.0351 0.517432,-0.11337 0.668782,-0.17999 -0.150637,0.22261 -0.320576,0.42108 -0.582198,0.60267 0.02211,0.96518 -0.310903,1.779 -0.83433,2.37557"
       style="fill:none;stroke:#000000;stroke-width:0.26458332;stroke-linecap:round;stroke-linejoin:round;stroke-miterlimit:4;stroke-dasharray:none;stroke-opacity:1" />
  </g>
</svg>
